<?xml version="1.0" encoding="UTF-8" standalone="no"?>
<svg xmlns="http://www.w3.org/2000/svg" fill="#000000" height="48" viewBox="0 0 24 24" width="48" id="svg2" version="1.1">
  <g id="g4160">
    <rect ry="2" y="3" x="3" height="18" width="18" id="rect4152" style="fill:#ffffff;fill-opacity:1;stroke:none"/>
    <path style="fill:#e91e6f;fill-opacity:0.94117647" id="path4" d="M19 3H5c-1.1 0-2 .9-2 2v14c0 1.1.9 2 2 2h14c1.1 0 2-.9 2-2V5c0-1.1-.9-2-2-2zM9 17H7v-7h2v7zm4 0h-2V7h2v10zm4 0h-2v-4h2v4z"/>
    <rect style="fill:none;fill-opacity:1;stroke:#ffffff;stroke-opacity:1;stroke-width:1;stroke-miterlimit:4;stroke-dasharray:none" id="rect4154" width="18" height="18" x="3" y="3" ry="2"/>
  </g>
</svg>